<svg width="3841" height="2410" xmlns="http://www.w3.org/2000/svg" xmlns:xlink="http://www.w3.org/1999/xlink" xml:space="preserve" overflow="hidden"><defs><clipPath id="clip0"><rect x="3895" y="1526" width="335" height="336"/></clipPath></defs><g transform="translate(-403 50)"><g><g><g><g><path d="M1793.38 1407.25 1793.38 1303C1793.38 1270.24 1793.38 1253.86 1783.2 1243.68 1773.02 1233.5 1756.64 1233.5 1723.88 1233.5L1689.13 1233.5C1656.36 1233.5 1639.98 1233.5 1629.8 1243.68 1619.63 1253.86 1619.63 1270.24 1619.63 1303L1619.63 1407.25" stroke="#1C274C" stroke-width="26.0625" stroke-linecap="butt" stroke-linejoin="miter" stroke-miterlimit="4" stroke-opacity="1" fill="none" fill-rule="nonzero"/><path d="M1862.88 1407.25 1862.88 1160.04C1862.88 1136.74 1862.88 1125.09 1856.69 1116.16 1850.5 1107.23 1839.59 1103.14 1817.78 1094.96 1775.12 1078.97 1753.79 1070.97 1738.83 1081.33 1723.88 1091.7 1723.88 1114.48 1723.88 1160.04L1723.88 1233.5" stroke="#1C274C" stroke-width="26.0625" stroke-linecap="butt" stroke-linejoin="miter" stroke-miterlimit="4" stroke-opacity="0.5" fill="none" fill-rule="nonzero"/><path d="M1554.47 1164C1554.47 1171.2 1560.3 1177.03 1567.5 1177.03 1574.7 1177.03 1580.53 1171.2 1580.53 1164L1554.47 1164ZM1658.72 1164C1658.72 1171.2 1664.55 1177.03 1671.75 1177.03 1678.95 1177.03 1684.78 1171.2 1684.78 1164L1658.72 1164ZM1666.66 1108.28 1657.45 1117.49 1666.66 1108.28ZM1606.59 1094.5C1606.59 1101.7 1612.43 1107.53 1619.63 1107.53 1626.82 1107.53 1632.66 1101.7 1632.66 1094.5L1606.59 1094.5ZM1632.66 1059.75C1632.66 1052.55 1626.82 1046.72 1619.63 1046.72 1612.43 1046.72 1606.59 1052.55 1606.59 1059.75L1632.66 1059.75ZM1563.16 1407.25 1563.16 1233.5 1537.09 1233.5 1537.09 1407.25 1563.16 1407.25ZM1619.63 1177.03C1636.37 1177.03 1647.63 1177.06 1656.02 1178.19 1664.04 1179.27 1667.47 1181.13 1669.73 1183.39L1688.16 1164.96C1680.25 1157.05 1670.4 1153.82 1659.49 1152.36 1648.96 1150.94 1635.64 1150.97 1619.63 1150.97L1619.63 1177.03ZM1702.16 1233.5C1702.16 1217.49 1702.18 1204.17 1700.77 1193.63 1699.3 1182.73 1696.08 1172.88 1688.16 1164.96L1669.73 1183.39C1672 1185.66 1673.86 1189.09 1674.94 1197.11 1676.07 1205.5 1676.09 1216.75 1676.09 1233.5L1702.16 1233.5ZM1619.63 1150.97C1603.61 1150.97 1590.29 1150.94 1579.76 1152.36 1568.85 1153.82 1559 1157.05 1551.09 1164.96L1569.52 1183.39C1571.78 1181.13 1575.21 1179.27 1583.23 1178.19 1591.62 1177.06 1602.88 1177.03 1619.63 1177.03L1619.63 1150.97ZM1563.16 1233.5C1563.16 1216.75 1563.18 1205.5 1564.31 1197.11 1565.39 1189.09 1567.25 1185.66 1569.52 1183.39L1551.09 1164.96C1543.17 1172.88 1539.95 1182.73 1538.48 1193.63 1537.07 1204.17 1537.09 1217.49 1537.09 1233.5L1563.16 1233.5ZM1580.53 1164 1580.53 1137.94 1554.47 1137.94 1554.47 1164 1580.53 1164ZM1602.25 1116.22 1637 1116.22 1637 1090.16 1602.25 1090.16 1602.25 1116.22ZM1658.72 1137.94 1658.72 1164 1684.78 1164 1684.78 1137.94 1658.72 1137.94ZM1637 1116.22C1645.56 1116.22 1650.67 1116.25 1654.33 1116.74 1656.01 1116.96 1656.85 1117.23 1657.23 1117.39 1657.31 1117.42 1657.37 1117.45 1657.4 1117.47 1657.44 1117.48 1657.45 1117.49 1657.45 1117.5 1657.45 1117.5 1657.45 1117.49 1657.44 1117.49 1657.44 1117.48 1657.44 1117.48 1657.45 1117.49L1675.87 1099.06C1670.51 1093.69 1663.98 1091.74 1657.8 1090.91 1652 1090.13 1644.82 1090.16 1637 1090.16L1637 1116.22ZM1684.78 1137.94C1684.78 1130.12 1684.81 1122.94 1684.03 1117.14 1683.2 1110.96 1681.25 1104.43 1675.87 1099.06L1657.45 1117.49C1657.45 1117.5 1657.45 1117.5 1657.45 1117.49 1657.44 1117.49 1657.44 1117.48 1657.44 1117.48 1657.44 1117.49 1657.45 1117.5 1657.47 1117.53 1657.49 1117.57 1657.52 1117.62 1657.55 1117.71 1657.71 1118.09 1657.97 1118.93 1658.2 1120.61 1658.69 1124.27 1658.72 1129.38 1658.72 1137.94L1684.78 1137.94ZM1580.53 1137.94C1580.53 1129.38 1580.56 1124.27 1581.05 1120.61 1581.28 1118.93 1581.54 1118.09 1581.7 1117.71 1581.73 1117.62 1581.76 1117.57 1581.78 1117.53 1581.8 1117.5 1581.81 1117.49 1581.81 1117.48 1581.81 1117.48 1581.81 1117.49 1581.8 1117.49 1581.8 1117.5 1581.8 1117.5 1581.8 1117.49L1563.37 1099.06C1558.01 1104.43 1556.05 1110.96 1555.22 1117.14 1554.44 1122.94 1554.47 1130.12 1554.47 1137.94L1580.53 1137.94ZM1602.25 1090.16C1594.43 1090.16 1587.25 1090.13 1581.45 1090.91 1575.27 1091.74 1568.74 1093.69 1563.37 1099.06L1581.8 1117.49C1581.81 1117.48 1581.81 1117.48 1581.81 1117.49 1581.8 1117.49 1581.8 1117.5 1581.8 1117.5 1581.8 1117.49 1581.81 1117.48 1581.85 1117.47 1581.88 1117.45 1581.94 1117.42 1582.02 1117.39 1582.4 1117.23 1583.24 1116.96 1584.92 1116.74 1588.58 1116.25 1593.69 1116.22 1602.25 1116.22L1602.25 1090.16ZM1632.66 1094.5 1632.66 1059.75 1606.59 1059.75 1606.59 1094.5 1632.66 1094.5Z" fill="#1C274C" fill-rule="nonzero" fill-opacity="0.5"/><path d="M1880.25 1407.25 1532.75 1407.25" stroke="#1C274C" stroke-width="26.0625" stroke-linecap="round" stroke-linejoin="miter" stroke-miterlimit="4" stroke-opacity="1" fill="none" fill-rule="nonzero"/><path d="M1671.75 1285.63 1741.25 1285.63" stroke="#1C274C" stroke-width="26.0625" stroke-linecap="round" stroke-linejoin="miter" stroke-miterlimit="4" stroke-opacity="0.5" fill="none" fill-rule="nonzero"/><path d="M1671.75 1337.75 1741.25 1337.75" stroke="#1C274C" stroke-width="26.0625" stroke-linecap="round" stroke-linejoin="miter" stroke-miterlimit="4" stroke-opacity="0.5" fill="none" fill-rule="nonzero"/></g></g></g><path d="M3106.5 427C3106.5 261.038 3243.28 126.5 3412 126.5 3580.72 126.5 3717.5 261.038 3717.5 427 3717.5 592.961 3580.72 727.5 3412 727.5 3243.28 727.5 3106.5 592.961 3106.5 427Z" stroke="#042433" stroke-width="6.875" stroke-linecap="butt" stroke-linejoin="miter" stroke-miterlimit="8" stroke-opacity="1" fill="#E97132" fill-rule="evenodd" fill-opacity="1"/><text fill="#FFFFFF" fill-opacity="1" font-family="Aptos,Aptos_MSFontService,sans-serif" font-style="normal" font-variant="normal" font-weight="400" font-stretch="normal" font-size="83" text-anchor="start" direction="ltr" writing-mode="lr-tb" unicode-bidi="normal" text-decoration="none" transform="matrix(1 0 0 1 3273.97 354)">Change </text><text fill="#FFFFFF" fill-opacity="1" font-family="Aptos,Aptos_MSFontService,sans-serif" font-style="normal" font-variant="normal" font-weight="400" font-stretch="normal" font-size="83" text-anchor="start" direction="ltr" writing-mode="lr-tb" unicode-bidi="normal" text-decoration="none" transform="matrix(1 0 0 1 3235.93 453)">Interpreta</text><text fill="#FFFFFF" fill-opacity="1" font-family="Aptos,Aptos_MSFontService,sans-serif" font-style="normal" font-variant="normal" font-weight="400" font-stretch="normal" font-size="83" text-anchor="start" direction="ltr" writing-mode="lr-tb" unicode-bidi="normal" text-decoration="none" transform="matrix(1 0 0 1 3237.85 552)">tion </text><text fill="#FFFFFF" fill-opacity="1" font-family="Aptos,Aptos_MSFontService,sans-serif" font-style="normal" font-variant="normal" font-weight="400" font-stretch="normal" font-size="83" text-anchor="start" direction="ltr" writing-mode="lr-tb" unicode-bidi="normal" text-decoration="none" transform="matrix(1 0 0 1 3391.39 552)">Node</text><g clip-path="url(#clip0)"><g><g><path d="M293.125 314.062C293.125 319.841 288.435 324.531 282.656 324.531L198.906 324.531 198.906 246.015C198.906 243.121 196.566 240.781 193.672 240.781L141.328 240.781C138.433 240.781 136.094 243.121 136.094 246.015L136.094 324.531 52.3437 324.531C46.565 324.531 41.875 319.841 41.875 314.062L41.875 164.417 167.547 38.7501 293.125 164.328 293.125 314.062Z" fill="#F9EBB2" fill-rule="nonzero" fill-opacity="1" transform="matrix(1 0 0 1 3895 1527)"/><path d="M73.2812 31.4062 94.2187 31.4062 94.2187 65.9583 73.2812 86.8539Z" fill="#F76D57" fill-rule="nonzero" fill-opacity="1" transform="matrix(1 0 0 1 3895 1527)"/><path d="M146.562 251.25 188.437 251.25 188.437 324.531 146.562 324.531Z" fill="#F9EBB2" fill-rule="nonzero" fill-opacity="1" transform="matrix(1 0 0 1 3895 1527)"/><path d="M319.297 172.734C317.852 172.734 316.146 172.546 315.203 171.598L171.248 27.6427C170.227 26.622 168.887 26.109 167.547 26.109 166.207 26.109 164.867 26.622 163.846 27.6427L19.8435 171.651C18.8961 172.598 17.1478 172.734 15.7031 172.734 12.8085 172.734 10.4687 170.395 10.4687 167.5 10.4687 166.055 10.5525 164.244 11.4999 163.297L162.449 12.6148C162.449 12.6148 164.401 10.4687 167.547 10.4687 170.693 10.4687 172.687 12.552 172.687 12.552L323.469 163.328C324.416 164.276 324.531 166.055 324.531 167.5 324.531 170.389 322.191 172.734 319.297 172.734Z" fill="#F76D57" fill-rule="nonzero" fill-opacity="1" transform="matrix(1 0 0 1 3895 1527)"/><path d="M330.87 155.927 180.261 5.31289C180.261 5.31289 175.357 0 167.542 0 159.727 0 155.105 5.18726 155.105 5.18726L104.687 55.5053 104.687 26.1719C104.687 23.2773 102.348 20.9375 99.4531 20.9375L68.0468 20.9375C65.1522 20.9375 62.8125 23.2773 62.8125 26.1719L62.8125 97.3018 4.09851 155.895C1.25625 158.738 0 163.166 0 167.5 0 176.168 7.02976 183.203 15.7031 183.203 20.0372 183.203 24.4026 181.889 27.2449 179.047L31.4062 174.886 31.4062 314.062C31.4062 325.636 40.7705 335 52.3437 335L282.656 335C294.229 335 303.594 325.636 303.594 314.062L303.594 174.797 307.802 179.005C310.644 181.837 314.963 183.203 319.297 183.203 327.97 183.203 335 176.173 335 167.5 335 163.161 333.712 158.769 330.87 155.927ZM73.2812 31.4062 94.2187 31.4062 94.2187 65.9583 73.2812 86.8539 73.2812 31.4062ZM188.437 324.531 146.562 324.531 146.562 251.25 188.437 251.25 188.437 324.531ZM293.125 314.062C293.125 319.841 288.435 324.531 282.656 324.531L198.906 324.531 198.906 246.015C198.906 243.121 196.566 240.781 193.672 240.781L141.328 240.781C138.433 240.781 136.094 243.121 136.094 246.015L136.094 324.531 52.3437 324.531C46.565 324.531 41.875 319.841 41.875 314.062L41.875 164.417 167.547 38.7501 293.125 164.328 293.125 314.062ZM319.297 172.734C317.852 172.734 316.146 172.546 315.203 171.598L171.248 27.6427C170.227 26.622 168.887 26.109 167.547 26.109 166.207 26.109 164.867 26.622 163.846 27.6427L19.8435 171.651C18.8961 172.598 17.1478 172.734 15.7031 172.734 12.8085 172.734 10.4687 170.395 10.4687 167.5 10.4687 166.055 10.5525 164.244 11.4999 163.297L162.449 12.6148C162.449 12.6148 164.401 10.4687 167.547 10.4687 170.693 10.4687 172.687 12.552 172.687 12.552L323.469 163.328C324.416 164.276 324.531 166.055 324.531 167.5 324.531 170.389 322.191 172.734 319.297 172.734Z" fill="#394240" fill-rule="nonzero" fill-opacity="1" transform="matrix(1 0 0 1 3895 1527)"/><path d="M120.391 167.5 78.5156 167.5C75.621 167.5 73.2812 169.84 73.2812 172.734L73.2812 214.609C73.2812 217.504 75.621 219.844 78.5156 219.844L120.391 219.844C123.285 219.844 125.625 217.504 125.625 214.609L125.625 172.734C125.625 169.84 123.285 167.5 120.391 167.5ZM115.156 209.375 83.75 209.375 83.75 177.969 115.156 177.969 115.156 209.375Z" fill="#394240" fill-rule="nonzero" fill-opacity="1" transform="matrix(1 0 0 1 3895 1527)"/><path d="M214.609 219.844 256.484 219.844C259.379 219.844 261.719 217.504 261.719 214.609L261.719 172.734C261.719 169.84 259.379 167.5 256.484 167.5L214.609 167.5C211.715 167.5 209.375 169.84 209.375 172.734L209.375 214.609C209.375 217.504 211.715 219.844 214.609 219.844ZM219.844 177.969 251.25 177.969 251.25 209.375 219.844 209.375 219.844 177.969Z" fill="#394240" fill-rule="nonzero" fill-opacity="1" transform="matrix(1 0 0 1 3895 1527)"/><path d="M146.562 251.25 188.437 251.25 188.437 324.531 146.562 324.531Z" fill="#506C7F" fill-rule="nonzero" fill-opacity="1" transform="matrix(1 0 0 1 3895 1527)"/><path d="M83.75 177.969 115.156 177.969 115.156 209.375 83.75 209.375Z" fill="#45AAB8" fill-rule="nonzero" fill-opacity="1" transform="matrix(1 0 0 1 3895 1527)"/><path d="M219.844 177.969 251.25 177.969 251.25 209.375 219.844 209.375Z" fill="#45AAB8" fill-rule="nonzero" fill-opacity="1" transform="matrix(1 0 0 1 3895 1527)"/></g></g></g><path d="M415.5 1698.5C415.5 1638.85 463.854 1590.5 523.502 1590.5L2288.5 1590.5C2348.15 1590.5 2396.5 1638.85 2396.5 1698.5L2396.5 2130.5C2396.5 2190.15 2348.15 2238.5 2288.5 2238.5L523.502 2238.5C463.854 2238.5 415.5 2190.15 415.5 2130.5Z" stroke="#4E95D9" stroke-width="22.9167" stroke-linecap="butt" stroke-linejoin="round" stroke-miterlimit="10" stroke-opacity="1" fill="none" fill-rule="evenodd"/><g><g><g><path d="M28.1323 100.805C28.1323 117.812 41.9192 131.599 58.9263 131.599 75.9334 131.599 89.7202 117.812 89.7202 100.805 89.7202 83.7976 75.9334 70.0108 58.9263 70.0108 41.9192 70.0108 28.1323 83.7976 28.1323 100.805Z" fill="#2DCD54" fill-rule="nonzero" fill-opacity="1" transform="matrix(1.0029 0 0 1 3470 2011)"/><path d="M58.9263 70.0445C46.1909 70.0445 35.2412 77.7935 30.5581 88.8443 35.6792 85.0708 41.9795 82.8472 48.8189 82.8472 65.833 82.8472 79.6128 96.627 79.6128 113.641 79.6128 117.886 78.7368 121.929 77.187 125.635 84.8013 120.043 89.7202 111.013 89.7202 100.838 89.7202 83.8242 75.9405 70.0445 58.9263 70.0445Z" fill="#31B952" fill-rule="nonzero" fill-opacity="1" transform="matrix(1.0029 0 0 1 3470 2011)"/><path d="M58.9263 138.337C38.2398 138.337 21.3941 121.491 21.3941 100.805 21.3941 80.1182 38.2398 63.2725 58.9263 63.2725 79.6128 63.2725 96.4585 80.1182 96.4585 100.805 96.4585 121.525 79.6128 138.337 58.9263 138.337ZM58.9263 76.7827C45.6519 76.7827 34.8706 87.564 34.8706 100.838 34.8706 114.113 45.6519 124.894 58.9263 124.894 72.2007 124.894 82.982 114.113 82.982 100.838 82.982 87.564 72.2007 76.7827 58.9263 76.7827Z" fill="#202D47" fill-rule="nonzero" fill-opacity="1" transform="matrix(1.0029 0 0 1 3470 2011)"/><path d="M28.0986 286.209C28.0986 303.216 41.8855 317.003 58.8926 317.003 75.8997 317.003 89.6866 303.216 89.6866 286.209 89.6866 269.202 75.8997 255.415 58.8926 255.415 41.8855 255.415 28.0986 269.202 28.0986 286.209Z" fill="#227CE5" fill-rule="nonzero" fill-opacity="1" transform="matrix(1.0029 0 0 1 3470 2011)"/><path d="M59.2295 252.045C47.0669 252.045 36.5552 259.121 31.5352 269.363 35.9487 266.937 41.0025 265.522 46.4268 265.522 63.4409 265.522 77.2207 279.302 77.2207 296.316 77.2207 301.134 76.1089 305.716 74.1211 309.793 83.5884 304.537 90.0235 294.429 90.0235 282.839 89.9898 265.825 76.21 252.045 59.2295 252.045Z" fill="#2571CB" fill-rule="nonzero" fill-opacity="1" transform="matrix(1.0029 0 0 1 3470 2011)"/><path d="M58.8926 323.707C38.2061 323.707 21.3604 306.861 21.3604 286.175 21.3604 265.488 38.2061 248.643 58.8926 248.643 79.5791 248.643 96.4248 265.488 96.4248 286.175 96.3912 306.895 79.5791 323.707 58.8926 323.707ZM58.8926 262.153C45.6182 262.153 34.8369 272.934 34.8369 286.209 34.8369 299.483 45.6182 310.264 58.8926 310.264 72.167 310.264 82.9483 299.483 82.9483 286.209 82.9483 272.934 72.1333 262.153 58.8926 262.153Z" fill="#202D47" fill-rule="nonzero" fill-opacity="1" transform="matrix(1.0029 0 0 1 3470 2011)"/><path d="M255.314 285.67C255.314 302.677 269.1 316.464 286.108 316.464 303.115 316.464 316.901 302.677 316.901 285.67 316.901 268.662 303.115 254.876 286.108 254.876 269.1 254.876 255.314 268.662 255.314 285.67Z" fill="#2DCD54" fill-rule="nonzero" fill-opacity="1" transform="matrix(1.0029 0 0 1 3470 2011)"/><path d="M286.108 254.876C275.023 254.876 265.286 260.738 259.862 269.531 264.545 266.634 270.07 264.983 276 264.983 293.014 264.983 306.794 278.763 306.794 295.777 306.794 301.673 305.143 307.198 302.246 311.915 311.039 306.491 316.901 296.788 316.901 285.67 316.901 268.655 303.122 254.876 286.108 254.876Z" fill="#31B952" fill-rule="nonzero" fill-opacity="1" transform="matrix(1.0029 0 0 1 3470 2011)"/><path d="M286.108 323.168C265.421 323.168 248.575 306.322 248.575 285.636 248.575 264.949 265.421 248.104 286.108 248.104 306.794 248.104 323.64 264.949 323.64 285.636 323.64 306.356 306.828 323.168 286.108 323.168ZM286.108 261.614C272.833 261.614 262.052 272.395 262.052 285.67 262.052 298.944 272.833 309.725 286.108 309.725 299.382 309.725 310.163 298.944 310.163 285.67 310.163 272.395 299.382 261.614 286.108 261.614Z" fill="#202D47" fill-rule="nonzero" fill-opacity="1" transform="matrix(1.0029 0 0 1 3470 2011)"/><path d="M254.269 154.307C254.269 171.314 268.056 185.101 285.063 185.101 302.07 185.101 315.857 171.314 315.857 154.307 315.857 137.3 302.07 123.513 285.063 123.513 268.056 123.513 254.269 137.3 254.269 154.307Z" fill="#227CE5" fill-rule="nonzero" fill-opacity="1" transform="matrix(1.0029 0 0 1 3470 2011)"/><path d="M282.031 135.17C298.371 139.887 307.805 156.935 303.088 173.275 302.414 175.6 301.505 177.79 300.359 179.845 306.39 175.97 311.073 169.973 313.195 162.527 317.912 146.187 308.479 129.139 292.138 124.422 278.123 120.379 263.602 126.747 256.762 138.91 264.006 134.227 273.103 132.609 282.031 135.17Z" fill="#2571CB" fill-rule="nonzero" fill-opacity="1" transform="matrix(1.0029 0 0 1 3470 2011)"/><path d="M285.063 191.839C264.377 191.839 247.531 174.993 247.531 154.307 247.531 133.62 264.377 116.774 285.063 116.774 305.75 116.774 322.595 133.62 322.595 154.307 322.595 174.993 305.75 191.839 285.063 191.839ZM285.063 130.251C271.789 130.251 261.007 141.032 261.007 154.307 261.007 167.581 271.789 178.362 285.063 178.362 298.337 178.362 309.119 167.581 309.119 154.307 309.119 141.032 298.337 130.251 285.063 130.251Z" fill="#202D47" fill-rule="nonzero" fill-opacity="1" transform="matrix(1.0029 0 0 1 3470 2011)"/><path d="M143.357 58.7915C143.357 75.7986 157.144 89.5855 174.151 89.5855 191.158 89.5855 204.945 75.7986 204.945 58.7915 204.945 41.7844 191.158 27.9976 174.151 27.9976 157.144 27.9976 143.357 41.7844 143.357 58.7915Z" fill="#227CE5" fill-rule="nonzero" fill-opacity="1" transform="matrix(1.0029 0 0 1 3470 2011)"/><path d="M174.151 28.0313C162.089 28.0313 151.679 34.938 146.625 45.0454 151.712 41.3394 157.945 39.1494 164.717 39.1494 181.732 39.1494 195.511 52.9292 195.511 69.9434 195.511 74.896 194.332 79.5791 192.243 83.7232 199.925 78.1304 204.945 69.0674 204.945 58.8252 204.945 41.8111 191.131 28.0313 174.151 28.0313Z" fill="#2571CB" fill-rule="nonzero" fill-opacity="1" transform="matrix(1.0029 0 0 1 3470 2011)"/><path d="M174.151 96.3238C153.464 96.3238 136.619 79.4781 136.619 58.7915 136.619 38.105 153.464 21.2593 174.151 21.2593 194.837 21.2593 211.683 38.105 211.683 58.7915 211.683 79.4781 194.837 96.3238 174.151 96.3238ZM174.151 34.7695C160.877 34.7695 150.095 45.5508 150.095 58.8252 150.095 72.0996 160.877 82.8809 174.151 82.8809 187.425 82.8809 198.207 72.0996 198.207 58.8252 198.207 45.5508 187.392 34.7695 174.151 34.7695Z" fill="#202D47" fill-rule="nonzero" fill-opacity="1" transform="matrix(1.0029 0 0 1 3470 2011)"/><path d="M119.2 174.724C119.2 204.254 143.139 228.192 172.669 228.192 202.198 228.192 226.137 204.254 226.137 174.724 226.137 145.194 202.198 121.255 172.669 121.255 143.139 121.255 119.2 145.194 119.2 174.724Z" fill="#FFFFFF" fill-rule="nonzero" fill-opacity="1" transform="matrix(1.0029 0 0 1 3470 2011)"/><path d="M119.2 174.724C119.2 204.254 143.139 228.192 172.669 228.192 202.198 228.192 226.137 204.254 226.137 174.724 226.137 145.194 202.198 121.255 172.669 121.255 143.139 121.255 119.2 145.194 119.2 174.724Z" fill="#FFFFFF" fill-rule="nonzero" fill-opacity="1" transform="matrix(1.0029 0 0 1 3470 2011)"/><path d="M172.669 121.222C162.393 121.222 152.824 124.119 144.671 129.139 148.276 128.364 151.982 127.96 155.823 127.96 185.37 127.96 209.291 151.915 209.291 181.428 209.291 200.7 199.083 217.579 183.82 227.013 208.011 221.892 226.137 200.43 226.137 174.69 226.137 145.176 202.182 121.222 172.669 121.222Z" fill="#EEEEEE" fill-rule="nonzero" fill-opacity="1" transform="matrix(1.0029 0 0 1 3470 2011)"/><path d="M172.669 234.93C139.482 234.93 112.462 207.91 112.462 174.724 112.462 141.538 139.482 114.517 172.669 114.517 205.888 114.517 232.875 141.538 232.875 174.724 232.875 207.91 205.855 234.93 172.669 234.93ZM172.669 127.96C146.895 127.96 125.939 148.916 125.939 174.69 125.939 200.464 146.895 221.42 172.669 221.42 198.442 221.42 219.399 200.464 219.399 174.69 219.399 148.95 198.442 127.96 172.669 127.96Z" fill="#202D47" fill-rule="nonzero" fill-opacity="1" transform="matrix(1.0029 0 0 1 3470 2011)"/><path d="M82.6787 117.111 130.487 148.512" fill="#227CE5" fill-rule="nonzero" fill-opacity="1" transform="matrix(1.0029 0 0 1 3470 2011)"/><path d="M86.3983 111.481 134.219 142.882 126.821 154.147 79.001 122.746Z" fill="#202D47" fill-rule="nonzero" fill-opacity="1" transform="matrix(1.0029 0 0 1 3470 2011)"/><path d="M223.071 164.077 254.303 159.63" fill="#227CE5" fill-rule="nonzero" fill-opacity="1" transform="matrix(1.0029 0 0 1 3470 2011)"/><path d="M253.358 152.964 255.261 166.306 224.041 170.759 222.138 157.417Z" fill="#202D47" fill-rule="nonzero" fill-opacity="1" transform="matrix(1.0029 0 0 1 3470 2011)"/><path d="M165.93 84.9361 179.407 84.9361 179.407 117.111 165.93 117.111Z" fill="#202D47" fill-rule="nonzero" fill-opacity="1" transform="matrix(1.0029 0 0 1 3470 2011)"/><path d="M130.487 214.378 84.1275 259.559" fill="#227CE5" fill-rule="nonzero" fill-opacity="1" transform="matrix(1.0029 0 0 1 3470 2011)"/><path d="M125.805 209.526 135.209 219.18 88.8487 264.342 79.4447 254.689Z" fill="#202D47" fill-rule="nonzero" fill-opacity="1" transform="matrix(1.0029 0 0 1 3470 2011)"/><path d="M215.254 214.884 269.194 268.79" fill="#227CE5" fill-rule="nonzero" fill-opacity="1" transform="matrix(1.0029 0 0 1 3470 2011)"/><path d="M220.003 210.093 273.939 264.029 264.41 273.558 210.474 219.622Z" fill="#202D47" fill-rule="nonzero" fill-opacity="1" transform="matrix(1.0029 0 0 1 3470 2011)"/></g></g></g><g><g><g><path d="M4198.12 2289.06C4198.12 2294.84 4193.44 2299.53 4187.66 2299.53L4103.91 2299.53 4103.91 2221.02C4103.91 2218.12 4101.57 2215.78 4098.67 2215.78L4046.33 2215.78C4043.43 2215.78 4041.09 2218.12 4041.09 2221.02L4041.09 2299.53 3957.34 2299.53C3951.56 2299.53 3946.88 2294.84 3946.88 2289.06L3946.88 2139.42 4072.55 2013.75 4198.12 2139.33 4198.12 2289.06Z" fill="#F9EBB2" fill-rule="nonzero" fill-opacity="1"/><path d="M3978.28 2006.41 3999.22 2006.41 3999.22 2040.96 3978.28 2061.85Z" fill="#F76D57" fill-rule="nonzero" fill-opacity="1"/><path d="M4051.56 2226.25 4093.44 2226.25 4093.44 2299.53 4051.56 2299.53Z" fill="#F9EBB2" fill-rule="nonzero" fill-opacity="1"/><path d="M4224.3 2147.73C4222.85 2147.73 4221.15 2147.55 4220.2 2146.6L4076.25 2002.64C4075.23 2001.62 4073.89 2001.11 4072.55 2001.11 4071.21 2001.11 4069.87 2001.62 4068.85 2002.64L3924.84 2146.65C3923.9 2147.6 3922.15 2147.73 3920.7 2147.73 3917.81 2147.73 3915.47 2145.39 3915.47 2142.5 3915.47 2141.06 3915.55 2139.24 3916.5 2138.3L4067.45 1987.61C4067.45 1987.61 4069.4 1985.47 4072.55 1985.47 4075.69 1985.47 4077.69 1987.55 4077.69 1987.55L4228.47 2138.33C4229.42 2139.28 4229.53 2141.06 4229.53 2142.5 4229.53 2145.39 4227.19 2147.73 4224.3 2147.73Z" fill="#F76D57" fill-rule="nonzero" fill-opacity="1"/><path d="M4235.87 2130.93 4085.26 1980.31C4085.26 1980.31 4080.36 1975 4072.54 1975 4064.73 1975 4060.1 1980.19 4060.1 1980.19L4009.69 2030.51 4009.69 2001.17C4009.69 1998.28 4007.35 1995.94 4004.45 1995.94L3973.05 1995.94C3970.15 1995.94 3967.81 1998.28 3967.81 2001.17L3967.81 2072.3 3909.1 2130.9C3906.26 2133.74 3905 2138.17 3905 2142.5 3905 2151.17 3912.03 2158.2 3920.7 2158.2 3925.04 2158.2 3929.4 2156.89 3932.24 2154.05L3936.41 2149.89 3936.41 2289.06C3936.41 2300.64 3945.77 2310 3957.34 2310L4187.66 2310C4199.23 2310 4208.59 2300.64 4208.59 2289.06L4208.59 2149.8 4212.8 2154.01C4215.64 2156.84 4219.96 2158.2 4224.3 2158.2 4232.97 2158.2 4240 2151.17 4240 2142.5 4240 2138.16 4238.71 2133.77 4235.87 2130.93ZM3978.28 2006.41 3999.22 2006.41 3999.22 2040.96 3978.28 2061.85 3978.28 2006.41ZM4093.44 2299.53 4051.56 2299.53 4051.56 2226.25 4093.44 2226.25 4093.44 2299.53ZM4198.12 2289.06C4198.12 2294.84 4193.44 2299.53 4187.66 2299.53L4103.91 2299.53 4103.91 2221.02C4103.91 2218.12 4101.57 2215.78 4098.67 2215.78L4046.33 2215.78C4043.43 2215.78 4041.09 2218.12 4041.09 2221.02L4041.09 2299.53 3957.34 2299.53C3951.56 2299.53 3946.88 2294.84 3946.88 2289.06L3946.88 2139.42 4072.55 2013.75 4198.12 2139.33 4198.12 2289.06ZM4224.3 2147.73C4222.85 2147.73 4221.15 2147.55 4220.2 2146.6L4076.25 2002.64C4075.23 2001.62 4073.89 2001.11 4072.55 2001.11 4071.21 2001.11 4069.87 2001.62 4068.85 2002.64L3924.84 2146.65C3923.9 2147.6 3922.15 2147.73 3920.7 2147.73 3917.81 2147.73 3915.47 2145.39 3915.47 2142.5 3915.47 2141.06 3915.55 2139.24 3916.5 2138.3L4067.45 1987.61C4067.45 1987.61 4069.4 1985.47 4072.55 1985.47 4075.69 1985.47 4077.69 1987.55 4077.69 1987.55L4228.47 2138.33C4229.42 2139.28 4229.53 2141.06 4229.53 2142.5 4229.53 2145.39 4227.19 2147.73 4224.3 2147.73Z" fill="#394240" fill-rule="nonzero" fill-opacity="1"/><path d="M4025.39 2142.5 3983.52 2142.5C3980.62 2142.5 3978.28 2144.84 3978.28 2147.73L3978.28 2189.61C3978.28 2192.5 3980.62 2194.84 3983.52 2194.84L4025.39 2194.84C4028.29 2194.84 4030.62 2192.5 4030.62 2189.61L4030.62 2147.73C4030.62 2144.84 4028.29 2142.5 4025.39 2142.5ZM4020.16 2184.38 3988.75 2184.38 3988.75 2152.97 4020.16 2152.97 4020.16 2184.38Z" fill="#394240" fill-rule="nonzero" fill-opacity="1"/><path d="M4119.61 2194.84 4161.48 2194.84C4164.38 2194.84 4166.72 2192.5 4166.72 2189.61L4166.72 2147.73C4166.72 2144.84 4164.38 2142.5 4161.48 2142.5L4119.61 2142.5C4116.71 2142.5 4114.38 2144.84 4114.38 2147.73L4114.38 2189.61C4114.38 2192.5 4116.71 2194.84 4119.61 2194.84ZM4124.84 2152.97 4156.25 2152.97 4156.25 2184.38 4124.84 2184.38 4124.84 2152.97Z" fill="#394240" fill-rule="nonzero" fill-opacity="1"/><path d="M4051.56 2226.25 4093.44 2226.25 4093.44 2299.53 4051.56 2299.53Z" fill="#506C7F" fill-rule="nonzero" fill-opacity="1"/><path d="M3988.75 2152.97 4020.16 2152.97 4020.16 2184.38 3988.75 2184.38Z" fill="#45AAB8" fill-rule="nonzero" fill-opacity="1"/><path d="M4124.84 2152.97 4156.25 2152.97 4156.25 2184.38 4124.84 2184.38Z" fill="#45AAB8" fill-rule="nonzero" fill-opacity="1"/></g></g></g><g><g><g><path d="M28.1323 100.805C28.1323 117.812 41.9192 131.599 58.9262 131.599 75.9333 131.599 89.7201 117.812 89.7201 100.805 89.7201 83.7975 75.9333 70.0107 58.9262 70.0107 41.9192 70.0107 28.1323 83.7975 28.1323 100.805Z" fill="#2DCD54" fill-rule="nonzero" fill-opacity="1" transform="matrix(1.0029 0 0 1 3470 1578)"/><path d="M58.9262 70.0444C46.1909 70.0444 35.2412 77.7934 30.5581 88.8442 35.6792 85.0707 41.9795 82.8471 48.8188 82.8471 65.833 82.8471 79.6127 96.6269 79.6127 113.641 79.6127 117.886 78.7368 121.929 77.187 125.635 84.8012 120.042 89.7201 111.013 89.7201 100.838 89.7201 83.8242 75.9404 70.0444 58.9262 70.0444Z" fill="#31B952" fill-rule="nonzero" fill-opacity="1" transform="matrix(1.0029 0 0 1 3470 1578)"/><path d="M58.9262 138.337C38.2397 138.337 21.394 121.491 21.394 100.805 21.394 80.1181 38.2397 63.2724 58.9262 63.2724 79.6127 63.2724 96.4584 80.1181 96.4584 100.805 96.4584 121.525 79.6127 138.337 58.9262 138.337ZM58.9262 76.7827C45.6518 76.7827 34.8706 87.5639 34.8706 100.838 34.8706 114.113 45.6518 124.894 58.9262 124.894 72.2006 124.894 82.9819 114.113 82.9819 100.838 82.9819 87.5639 72.2006 76.7827 58.9262 76.7827Z" fill="#202D47" fill-rule="nonzero" fill-opacity="1" transform="matrix(1.0029 0 0 1 3470 1578)"/><path d="M28.0986 286.208C28.0986 303.215 41.8855 317.002 58.8925 317.002 75.8996 317.002 89.6865 303.215 89.6865 286.208 89.6865 269.201 75.8996 255.414 58.8925 255.414 41.8855 255.414 28.0986 269.201 28.0986 286.208Z" fill="#227CE5" fill-rule="nonzero" fill-opacity="1" transform="matrix(1.0029 0 0 1 3470 1578)"/><path d="M59.2295 252.045C47.0669 252.045 36.5551 259.12 31.5351 269.363 35.9487 266.937 41.0024 265.522 46.4267 265.522 63.4409 265.522 77.2206 279.302 77.2206 296.316 77.2206 301.134 76.1088 305.716 74.121 309.792 83.5883 304.536 90.0234 294.429 90.0234 282.839 89.9897 265.825 76.2099 252.045 59.2295 252.045Z" fill="#2571CB" fill-rule="nonzero" fill-opacity="1" transform="matrix(1.0029 0 0 1 3470 1578)"/><path d="M58.8925 323.707C38.206 323.707 21.3603 306.861 21.3603 286.175 21.3603 265.488 38.206 248.642 58.8925 248.642 79.579 248.642 96.4247 265.488 96.4247 286.175 96.391 306.895 79.579 323.707 58.8925 323.707ZM58.8925 262.153C45.6181 262.153 34.8369 272.934 34.8369 286.208 34.8369 299.483 45.6181 310.264 58.8925 310.264 72.1669 310.264 82.9482 299.483 82.9482 286.208 82.9482 272.934 72.1333 262.153 58.8925 262.153Z" fill="#202D47" fill-rule="nonzero" fill-opacity="1" transform="matrix(1.0029 0 0 1 3470 1578)"/><path d="M255.313 285.669C255.313 302.676 269.1 316.463 286.107 316.463 303.114 316.463 316.901 302.676 316.901 285.669 316.901 268.662 303.114 254.875 286.107 254.875 269.1 254.875 255.313 268.662 255.313 285.669Z" fill="#2DCD54" fill-rule="nonzero" fill-opacity="1" transform="matrix(1.0029 0 0 1 3470 1578)"/><path d="M286.107 254.875C275.023 254.875 265.286 260.738 259.862 269.531 264.545 266.634 270.07 264.983 276 264.983 293.014 264.983 306.794 278.763 306.794 295.777 306.794 301.673 305.143 307.198 302.245 311.915 311.039 306.491 316.901 296.787 316.901 285.669 316.901 268.655 303.121 254.875 286.107 254.875Z" fill="#31B952" fill-rule="nonzero" fill-opacity="1" transform="matrix(1.0029 0 0 1 3470 1578)"/><path d="M286.107 323.168C265.421 323.168 248.575 306.322 248.575 285.636 248.575 264.949 265.421 248.103 286.107 248.103 306.794 248.103 323.639 264.949 323.639 285.636 323.639 306.356 306.827 323.168 286.107 323.168ZM286.107 261.614C272.833 261.614 262.052 272.395 262.052 285.669 262.052 298.944 272.833 309.725 286.107 309.725 299.382 309.725 310.163 298.944 310.163 285.669 310.163 272.395 299.382 261.614 286.107 261.614Z" fill="#202D47" fill-rule="nonzero" fill-opacity="1" transform="matrix(1.0029 0 0 1 3470 1578)"/><path d="M254.269 154.307C254.269 171.314 268.056 185.1 285.063 185.1 302.07 185.1 315.857 171.314 315.857 154.307 315.857 137.299 302.07 123.513 285.063 123.513 268.056 123.513 254.269 137.299 254.269 154.307Z" fill="#227CE5" fill-rule="nonzero" fill-opacity="1" transform="matrix(1.0029 0 0 1 3470 1578)"/><path d="M282.031 135.17C298.371 139.887 307.804 156.934 303.088 173.275 302.414 175.599 301.504 177.789 300.359 179.845 306.389 175.97 311.073 169.973 313.195 162.527 317.912 146.187 308.478 129.139 292.138 124.422 278.122 120.379 263.601 126.747 256.762 138.91 264.006 134.226 273.102 132.609 282.031 135.17Z" fill="#2571CB" fill-rule="nonzero" fill-opacity="1" transform="matrix(1.0029 0 0 1 3470 1578)"/><path d="M285.063 191.839C264.376 191.839 247.531 174.993 247.531 154.307 247.531 133.62 264.376 116.774 285.063 116.774 305.749 116.774 322.595 133.62 322.595 154.307 322.595 174.993 305.749 191.839 285.063 191.839ZM285.063 130.251C271.788 130.251 261.007 141.032 261.007 154.307 261.007 167.581 271.788 178.362 285.063 178.362 298.337 178.362 309.118 167.581 309.118 154.307 309.118 141.032 298.337 130.251 285.063 130.251Z" fill="#202D47" fill-rule="nonzero" fill-opacity="1" transform="matrix(1.0029 0 0 1 3470 1578)"/><path d="M143.357 58.7915C143.357 75.7985 157.144 89.5854 174.151 89.5854 191.158 89.5854 204.945 75.7985 204.945 58.7915 204.945 41.7844 191.158 27.9975 174.151 27.9975 157.144 27.9975 143.357 41.7844 143.357 58.7915Z" fill="#227CE5" fill-rule="nonzero" fill-opacity="1" transform="matrix(1.0029 0 0 1 3470 1578)"/><path d="M174.151 28.0312C162.089 28.0312 151.679 34.938 146.625 45.0454 151.712 41.3393 157.945 39.1494 164.717 39.1494 181.731 39.1494 195.511 52.9292 195.511 69.9433 195.511 74.8959 194.332 79.579 192.243 83.7231 199.925 78.1303 204.945 69.0673 204.945 58.8252 204.945 41.811 191.131 28.0312 174.151 28.0312Z" fill="#2571CB" fill-rule="nonzero" fill-opacity="1" transform="matrix(1.0029 0 0 1 3470 1578)"/><path d="M174.151 96.3237C153.464 96.3237 136.619 79.478 136.619 58.7915 136.619 38.105 153.464 21.2593 174.151 21.2593 194.837 21.2593 211.683 38.105 211.683 58.7915 211.683 79.478 194.837 96.3237 174.151 96.3237ZM174.151 34.7695C160.876 34.7695 150.095 45.5507 150.095 58.8252 150.095 72.0996 160.876 82.8808 174.151 82.8808 187.425 82.8808 198.206 72.0996 198.206 58.8252 198.206 45.5507 187.391 34.7695 174.151 34.7695Z" fill="#202D47" fill-rule="nonzero" fill-opacity="1" transform="matrix(1.0029 0 0 1 3470 1578)"/><path d="M119.2 174.723C119.2 204.253 143.139 228.192 172.668 228.192 202.198 228.192 226.137 204.253 226.137 174.723 226.137 145.194 202.198 121.255 172.668 121.255 143.139 121.255 119.2 145.194 119.2 174.723Z" fill="#FFFFFF" fill-rule="nonzero" fill-opacity="1" transform="matrix(1.0029 0 0 1 3470 1578)"/><path d="M119.2 174.723C119.2 204.253 143.139 228.192 172.668 228.192 202.198 228.192 226.137 204.253 226.137 174.723 226.137 145.194 202.198 121.255 172.668 121.255 143.139 121.255 119.2 145.194 119.2 174.723Z" fill="#FFFFFF" fill-rule="nonzero" fill-opacity="1" transform="matrix(1.0029 0 0 1 3470 1578)"/><path d="M172.668 121.222C162.392 121.222 152.824 124.119 144.671 129.139 148.276 128.364 151.982 127.96 155.823 127.96 185.37 127.96 209.291 151.914 209.291 181.428 209.291 200.7 199.082 217.579 183.82 227.013 208.011 221.891 226.137 200.43 226.137 174.69 226.137 145.176 202.182 121.222 172.668 121.222Z" fill="#EEEEEE" fill-rule="nonzero" fill-opacity="1" transform="matrix(1.0029 0 0 1 3470 1578)"/><path d="M172.668 234.93C139.482 234.93 112.462 207.91 112.462 174.723 112.462 141.538 139.482 114.517 172.668 114.517 205.888 114.517 232.875 141.538 232.875 174.723 232.875 207.91 205.854 234.93 172.668 234.93ZM172.668 127.96C146.894 127.96 125.938 148.916 125.938 174.69 125.938 200.464 146.894 221.42 172.668 221.42 198.442 221.42 219.398 200.464 219.398 174.69 219.398 148.95 198.442 127.96 172.668 127.96Z" fill="#202D47" fill-rule="nonzero" fill-opacity="1" transform="matrix(1.0029 0 0 1 3470 1578)"/><path d="M82.6786 117.111 130.487 148.512" fill="#227CE5" fill-rule="nonzero" fill-opacity="1" transform="matrix(1.0029 0 0 1 3470 1578)"/><path d="M86.3982 111.481 134.218 142.882 126.821 154.147 79.0009 122.746Z" fill="#202D47" fill-rule="nonzero" fill-opacity="1" transform="matrix(1.0029 0 0 1 3470 1578)"/><path d="M223.071 164.077 254.303 159.63" fill="#227CE5" fill-rule="nonzero" fill-opacity="1" transform="matrix(1.0029 0 0 1 3470 1578)"/><path d="M253.358 152.964 255.261 166.306 224.041 170.759 222.138 157.417Z" fill="#202D47" fill-rule="nonzero" fill-opacity="1" transform="matrix(1.0029 0 0 1 3470 1578)"/><path d="M165.93 84.936 179.407 84.936 179.407 117.111 165.93 117.111Z" fill="#202D47" fill-rule="nonzero" fill-opacity="1" transform="matrix(1.0029 0 0 1 3470 1578)"/><path d="M130.487 214.378 84.1274 259.558" fill="#227CE5" fill-rule="nonzero" fill-opacity="1" transform="matrix(1.0029 0 0 1 3470 1578)"/><path d="M125.805 209.526 135.209 219.179 88.8486 264.342 79.4446 254.688Z" fill="#202D47" fill-rule="nonzero" fill-opacity="1" transform="matrix(1.0029 0 0 1 3470 1578)"/><path d="M215.254 214.884 269.194 268.79" fill="#227CE5" fill-rule="nonzero" fill-opacity="1" transform="matrix(1.0029 0 0 1 3470 1578)"/><path d="M220.003 210.093 273.939 264.029 264.409 273.558 210.474 219.622Z" fill="#202D47" fill-rule="nonzero" fill-opacity="1" transform="matrix(1.0029 0 0 1 3470 1578)"/></g></g></g><path d="M2952.5 1778.33C2952.5 1743.08 2981.08 1714.5 3016.33 1714.5L3397.67 1714.5C3432.92 1714.5 3461.5 1743.08 3461.5 1778.33L3461.5 2033.67C3461.5 2068.92 3432.92 2097.5 3397.67 2097.5L3016.33 2097.5C2981.08 2097.5 2952.5 2068.92 2952.5 2033.67Z" stroke="#042433" stroke-width="6.875" stroke-linecap="butt" stroke-linejoin="miter" stroke-miterlimit="8" stroke-opacity="1" fill="#156082" fill-rule="evenodd" fill-opacity="1"/><text fill="#FFFFFF" fill-opacity="1" font-family="Aptos,Aptos_MSFontService,sans-serif" font-style="normal" font-variant="normal" font-weight="400" font-stretch="normal" font-size="83" text-anchor="start" direction="ltr" writing-mode="lr-tb" unicode-bidi="normal" text-decoration="none" transform="matrix(1 0 0 1 3097.05 1833)">Graph </text><text fill="#FFFFFF" fill-opacity="1" font-family="Aptos,Aptos_MSFontService,sans-serif" font-style="normal" font-variant="normal" font-weight="400" font-stretch="normal" font-size="83" text-anchor="start" direction="ltr" writing-mode="lr-tb" unicode-bidi="normal" text-decoration="none" transform="matrix(1 0 0 1 3096.4 1932)">based </text><text fill="#FFFFFF" fill-opacity="1" font-family="Aptos,Aptos_MSFontService,sans-serif" font-style="normal" font-variant="normal" font-weight="400" font-stretch="normal" font-size="83" text-anchor="start" direction="ltr" writing-mode="lr-tb" unicode-bidi="normal" text-decoration="none" transform="matrix(1 0 0 1 3025.87 2031)">versioning</text><path d="M0.0654214-6.30174 48.2338-5.80169 48.103 6.8018-0.0654214 6.30174ZM42.0629-18.4706 79.6771 0.827165 41.6704 19.3399Z" fill="#156082" fill-rule="nonzero" fill-opacity="1" transform="matrix(-1 0 0 1 2953.18 1906.5)"/><rect x="2476.5" y="1715.5" width="397" height="383" stroke="#410C3B" stroke-width="6.875" stroke-linecap="butt" stroke-linejoin="miter" stroke-miterlimit="8" stroke-opacity="1" fill="#4E95D9" fill-opacity="1"/><text fill="#FFFFFF" fill-opacity="1" font-family="Aptos,Aptos_MSFontService,sans-serif" font-style="normal" font-variant="normal" font-weight="400" font-stretch="normal" font-size="83" text-anchor="start" direction="ltr" writing-mode="lr-tb" unicode-bidi="normal" text-decoration="none" transform="matrix(1 0 0 1 2536.78 1883)">Change </text><text fill="#FFFFFF" fill-opacity="1" font-family="Aptos,Aptos_MSFontService,sans-serif" font-style="normal" font-variant="normal" font-weight="400" font-stretch="normal" font-size="83" text-anchor="start" direction="ltr" writing-mode="lr-tb" unicode-bidi="normal" text-decoration="none" transform="matrix(1 0 0 1 2564.62 1982)">Graph</text><path d="M1791.5 1803.67C1791.5 1772.1 1817.1 1746.5 1848.67 1746.5L2238.33 1746.5C2269.91 1746.5 2295.5 1772.1 2295.5 1803.67L2295.5 2032.33C2295.5 2063.91 2269.91 2089.5 2238.33 2089.5L1848.67 2089.5C1817.1 2089.5 1791.5 2063.91 1791.5 2032.33Z" stroke="#042433" stroke-width="6.875" stroke-linecap="butt" stroke-linejoin="miter" stroke-miterlimit="8" stroke-opacity="1" fill="#0B76A0" fill-rule="evenodd" fill-opacity="1"/><text fill="#FFFFFF" fill-opacity="1" font-family="Aptos,Aptos_MSFontService,sans-serif" font-style="normal" font-variant="normal" font-weight="400" font-stretch="normal" font-size="83" text-anchor="start" direction="ltr" writing-mode="lr-tb" unicode-bidi="normal" text-decoration="none" transform="matrix(1 0 0 1 1846.71 1894)">GraphSage </text><text fill="#FFFFFF" fill-opacity="1" font-family="Aptos,Aptos_MSFontService,sans-serif" font-style="normal" font-variant="normal" font-weight="400" font-stretch="normal" font-size="83" text-anchor="start" direction="ltr" writing-mode="lr-tb" unicode-bidi="normal" text-decoration="none" transform="matrix(1 0 0 1 1932.28 1993)">Model</text><rect x="1160.5" y="1779.5" width="483" height="276" stroke="#410C3B" stroke-width="6.875" stroke-linecap="butt" stroke-linejoin="miter" stroke-miterlimit="8" stroke-opacity="1" fill="#4E95D9" fill-opacity="1"/><text fill="#FFFFFF" fill-opacity="1" font-family="Aptos,Aptos_MSFontService,sans-serif" font-style="normal" font-variant="normal" font-weight="400" font-stretch="normal" font-size="83" text-anchor="start" direction="ltr" writing-mode="lr-tb" unicode-bidi="normal" text-decoration="none" transform="matrix(1 0 0 1 1199.43 1944)">Embedding</text><path d="M479.5 1786C479.5 1750.38 508.378 1721.5 544.001 1721.5L1006 1721.5C1041.62 1721.5 1070.5 1750.38 1070.5 1786L1070.5 2044C1070.5 2079.62 1041.62 2108.5 1006 2108.5L544.001 2108.5C508.378 2108.5 479.5 2079.62 479.5 2044Z" stroke="#042433" stroke-width="6.875" stroke-linecap="butt" stroke-linejoin="miter" stroke-miterlimit="8" stroke-opacity="1" fill="#0B76A0" fill-rule="evenodd" fill-opacity="1"/><text fill="#FFFFFF" fill-opacity="1" font-family="Aptos,Aptos_MSFontService,sans-serif" font-style="normal" font-variant="normal" font-weight="400" font-stretch="normal" font-size="83" text-anchor="start" direction="ltr" writing-mode="lr-tb" unicode-bidi="normal" text-decoration="none" transform="matrix(1 0 0 1 637.326 1891)">Change </text><text fill="#FFFFFF" fill-opacity="1" font-family="Aptos,Aptos_MSFontService,sans-serif" font-style="normal" font-variant="normal" font-weight="400" font-stretch="normal" font-size="83" text-anchor="start" direction="ltr" writing-mode="lr-tb" unicode-bidi="normal" text-decoration="none" transform="matrix(1 0 0 1 535.736 1990)">Graph Library</text><rect x="672.5" y="1093.5" width="606" height="276" stroke="#46B1E1" stroke-width="6.875" stroke-linecap="butt" stroke-linejoin="miter" stroke-miterlimit="8" stroke-opacity="1" fill="#46B1E1" fill-opacity="1"/><text fill="#FFFFFF" fill-opacity="1" font-family="Aptos,Aptos_MSFontService,sans-serif" font-style="normal" font-variant="normal" font-weight="400" font-stretch="normal" font-size="83" text-anchor="start" direction="ltr" writing-mode="lr-tb" unicode-bidi="normal" text-decoration="none" transform="matrix(1 0 0 1 776.514 1208)">Interpreted </text><text fill="#FFFFFF" fill-opacity="1" font-family="Aptos,Aptos_MSFontService,sans-serif" font-style="normal" font-variant="normal" font-weight="400" font-stretch="normal" font-size="83" text-anchor="start" direction="ltr" writing-mode="lr-tb" unicode-bidi="normal" text-decoration="none" transform="matrix(1 0 0 1 837.427 1307)">Change</text><g><g><g><path d="M2840.25 1358.13C2840.25 1363.89 2835.57 1368.56 2829.81 1368.56L2746.31 1368.56 2746.31 1290.28C2746.31 1287.4 2743.98 1285.06 2741.09 1285.06L2688.91 1285.06C2686.02 1285.06 2683.69 1287.4 2683.69 1290.28L2683.69 1368.56 2600.19 1368.56C2594.43 1368.56 2589.75 1363.89 2589.75 1358.13L2589.75 1208.93 2715.05 1083.63 2840.25 1208.84 2840.25 1358.13Z" fill="#F9EBB2" fill-rule="nonzero" fill-opacity="1"/><path d="M2621.06 1076.31 2641.94 1076.31 2641.94 1110.76 2621.06 1131.59Z" fill="#F76D57" fill-rule="nonzero" fill-opacity="1"/><path d="M2694.12 1295.5 2735.87 1295.5 2735.87 1368.56 2694.12 1368.56Z" fill="#F9EBB2" fill-rule="nonzero" fill-opacity="1"/><path d="M2866.34 1217.22C2864.9 1217.22 2863.2 1217.03 2862.26 1216.09L2718.74 1072.56C2717.72 1071.54 2716.38 1071.03 2715.05 1071.03 2713.71 1071.03 2712.37 1071.54 2711.36 1072.56L2567.78 1216.14C2566.84 1217.08 2565.1 1217.22 2563.66 1217.22 2560.77 1217.22 2558.44 1214.89 2558.44 1212 2558.44 1210.56 2558.52 1208.75 2559.47 1207.81L2709.96 1057.58C2709.96 1057.58 2711.91 1055.44 2715.05 1055.44 2718.18 1055.44 2720.17 1057.51 2720.17 1057.51L2870.5 1207.84C2871.45 1208.79 2871.56 1210.56 2871.56 1212 2871.56 1214.88 2869.23 1217.22 2866.34 1217.22Z" fill="#F76D57" fill-rule="nonzero" fill-opacity="1"/><path d="M2877.88 1200.46 2727.72 1050.3C2727.72 1050.3 2722.83 1045 2715.04 1045 2707.25 1045 2702.64 1050.17 2702.64 1050.17L2652.37 1100.34 2652.37 1071.09C2652.37 1068.21 2650.04 1065.88 2647.16 1065.88L2615.84 1065.88C2612.96 1065.88 2610.62 1068.21 2610.62 1071.09L2610.62 1142.01 2552.09 1200.43C2549.25 1203.26 2548 1207.68 2548 1212 2548 1220.64 2555.01 1227.66 2563.66 1227.66 2567.98 1227.66 2572.33 1226.35 2575.16 1223.51L2579.31 1219.36 2579.31 1358.13C2579.31 1369.66 2588.65 1379 2600.19 1379L2829.81 1379C2841.35 1379 2850.69 1369.66 2850.69 1358.13L2850.69 1219.28 2854.88 1223.47C2857.72 1226.29 2862.02 1227.66 2866.34 1227.66 2874.99 1227.66 2882 1220.65 2882 1212 2882 1207.67 2880.72 1203.3 2877.88 1200.46ZM2621.06 1076.31 2641.94 1076.31 2641.94 1110.76 2621.06 1131.59 2621.06 1076.31ZM2735.87 1368.56 2694.12 1368.56 2694.12 1295.5 2735.87 1295.5 2735.87 1368.56ZM2840.25 1358.13C2840.25 1363.89 2835.57 1368.56 2829.81 1368.56L2746.31 1368.56 2746.31 1290.28C2746.31 1287.4 2743.98 1285.06 2741.09 1285.06L2688.91 1285.06C2686.02 1285.06 2683.69 1287.4 2683.69 1290.28L2683.69 1368.56 2600.19 1368.56C2594.43 1368.56 2589.75 1363.89 2589.75 1358.13L2589.75 1208.93 2715.05 1083.63 2840.25 1208.84 2840.25 1358.13ZM2866.34 1217.22C2864.9 1217.22 2863.2 1217.03 2862.26 1216.09L2718.74 1072.56C2717.72 1071.54 2716.38 1071.03 2715.05 1071.03 2713.71 1071.03 2712.37 1071.54 2711.36 1072.56L2567.78 1216.14C2566.84 1217.08 2565.1 1217.22 2563.66 1217.22 2560.77 1217.22 2558.44 1214.89 2558.44 1212 2558.44 1210.56 2558.52 1208.75 2559.47 1207.81L2709.96 1057.58C2709.96 1057.58 2711.91 1055.44 2715.05 1055.44 2718.18 1055.44 2720.17 1057.51 2720.17 1057.51L2870.5 1207.84C2871.45 1208.79 2871.56 1210.56 2871.56 1212 2871.56 1214.88 2869.23 1217.22 2866.34 1217.22Z" fill="#394240" fill-rule="nonzero" fill-opacity="1"/><path d="M2668.03 1212 2626.28 1212C2623.4 1212 2621.06 1214.33 2621.06 1217.22L2621.06 1258.97C2621.06 1261.85 2623.4 1264.19 2626.28 1264.19L2668.03 1264.19C2670.92 1264.19 2673.25 1261.85 2673.25 1258.97L2673.25 1217.22C2673.25 1214.33 2670.92 1212 2668.03 1212ZM2662.81 1253.75 2631.5 1253.75 2631.5 1222.44 2662.81 1222.44 2662.81 1253.75Z" fill="#394240" fill-rule="nonzero" fill-opacity="1"/><path d="M2761.97 1264.19 2803.72 1264.19C2806.6 1264.19 2808.94 1261.85 2808.94 1258.97L2808.94 1217.22C2808.94 1214.33 2806.6 1212 2803.72 1212L2761.97 1212C2759.08 1212 2756.75 1214.33 2756.75 1217.22L2756.75 1258.97C2756.75 1261.85 2759.08 1264.19 2761.97 1264.19ZM2767.19 1222.44 2798.5 1222.44 2798.5 1253.75 2767.19 1253.75 2767.19 1222.44Z" fill="#394240" fill-rule="nonzero" fill-opacity="1"/><path d="M2694.12 1295.5 2735.87 1295.5 2735.87 1368.56 2694.12 1368.56Z" fill="#506C7F" fill-rule="nonzero" fill-opacity="1"/><path d="M2631.5 1222.44 2662.81 1222.44 2662.81 1253.75 2631.5 1253.75Z" fill="#45AAB8" fill-rule="nonzero" fill-opacity="1"/><path d="M2767.19 1222.44 2798.5 1222.44 2798.5 1253.75 2767.19 1253.75Z" fill="#45AAB8" fill-rule="nonzero" fill-opacity="1"/></g></g></g><rect x="1950.5" y="1101.5" width="483" height="276" stroke="#410C3B" stroke-width="6.875" stroke-linecap="butt" stroke-linejoin="miter" stroke-miterlimit="8" stroke-opacity="1" fill="#46B1E1" fill-opacity="1"/><text fill="#FFFFFF" fill-opacity="1" font-family="Aptos,Aptos_MSFontService,sans-serif" font-style="normal" font-variant="normal" font-weight="400" font-stretch="normal" font-size="83" text-anchor="start" direction="ltr" writing-mode="lr-tb" unicode-bidi="normal" text-decoration="none" transform="matrix(1 0 0 1 2091.02 1216)">Entity </text><text fill="#FFFFFF" fill-opacity="1" font-family="Aptos,Aptos_MSFontService,sans-serif" font-style="normal" font-variant="normal" font-weight="400" font-stretch="normal" font-size="83" text-anchor="start" direction="ltr" writing-mode="lr-tb" unicode-bidi="normal" text-decoration="none" transform="matrix(1 0 0 1 2027.43 1315)">Matching</text><path d="M3045.5 1080.5C3045.5 1044.05 3075.05 1014.5 3111.5 1014.5L3651.5 1014.5C3687.95 1014.5 3717.5 1044.05 3717.5 1080.5L3717.5 1344.5C3717.5 1380.95 3687.95 1410.5 3651.5 1410.5L3111.5 1410.5C3075.05 1410.5 3045.5 1380.95 3045.5 1344.5Z" stroke="#042433" stroke-width="6.875" stroke-linecap="butt" stroke-linejoin="miter" stroke-miterlimit="8" stroke-opacity="1" fill="#46B1E1" fill-rule="evenodd" fill-opacity="1"/><text fill="#FFFFFF" fill-opacity="1" font-family="Aptos,Aptos_MSFontService,sans-serif" font-style="normal" font-variant="normal" font-weight="400" font-stretch="normal" font-size="83" text-anchor="start" direction="ltr" writing-mode="lr-tb" unicode-bidi="normal" text-decoration="none" transform="matrix(1 0 0 1 3271.09 1140)">Graph </text><text fill="#FFFFFF" fill-opacity="1" font-family="Aptos,Aptos_MSFontService,sans-serif" font-style="normal" font-variant="normal" font-weight="400" font-stretch="normal" font-size="83" text-anchor="start" direction="ltr" writing-mode="lr-tb" unicode-bidi="normal" text-decoration="none" transform="matrix(1 0 0 1 3112 1239)">Transformation</text><text fill="#FFFFFF" fill-opacity="1" font-family="Aptos,Aptos_MSFontService,sans-serif" font-style="normal" font-variant="normal" font-weight="400" font-stretch="normal" font-size="83" text-anchor="start" direction="ltr" writing-mode="lr-tb" unicode-bidi="normal" text-decoration="none" transform="matrix(1 0 0 1 3300.47 1338)">Rule</text><path d="M415.5 982.504C415.5 922.855 463.855 874.5 523.504 874.5L3907.5 874.5C3967.14 874.5 4015.5 922.855 4015.5 982.504L4015.5 1414.5C4015.5 1474.14 3967.14 1522.5 3907.5 1522.5L523.504 1522.5C463.855 1522.5 415.5 1474.14 415.5 1414.5Z" stroke="#46B1E1" stroke-width="22.9167" stroke-linecap="butt" stroke-linejoin="round" stroke-miterlimit="10" stroke-opacity="1" fill="none" fill-rule="evenodd"/><path d="M1278.53 1228.06 1476.33 1229.98 1476.26 1236.86 1278.47 1234.94ZM1471.84 1219.63 1499.21 1233.64 1471.58 1247.12Z" fill="#156082" fill-rule="nonzero" fill-opacity="1"/><path d="M2882.5 1209.06 2988.6 1209.06 2988.6 1215.94 2882.5 1215.94ZM2984.02 1198.75 3011.52 1212.5 2984.02 1226.25Z" fill="#156082" fill-rule="nonzero" fill-opacity="1"/><path d="M2476.01 1907.8 2357.01 1907.8 2357.01 1895.2 2476.01 1895.2ZM2363.31 1920.41 2325.5 1901.5 2363.31 1882.59Z" fill="#156082" fill-rule="nonzero" fill-opacity="1"/><path d="M1777.01 1922.8 1658.01 1922.8 1658.01 1910.2 1777.01 1910.2ZM1664.31 1935.41 1626.5 1916.5 1664.31 1897.59Z" fill="#156082" fill-rule="nonzero" fill-opacity="1"/><path d="M1178.01 1923.8 1059.01 1923.8 1059.01 1911.2 1178.01 1911.2ZM1065.31 1936.41 1027.5 1917.5 1065.31 1898.59Z" fill="#156082" fill-rule="nonzero" fill-opacity="1"/><path d="M0 291.5 44.75 291.5 44.75 0 134.25 0 134.25 291.5 179 291.5 89.5001 381Z" stroke="#042433" stroke-width="6.875" stroke-linecap="butt" stroke-linejoin="miter" stroke-miterlimit="8" stroke-opacity="1" fill="#156082" fill-rule="evenodd" fill-opacity="1" transform="matrix(1 0 0 -1 844.5 1740.5)"/><g><g><g><path d="M759.375 588.25 759.375 484C759.375 451.238 759.375 434.856 749.197 424.678 739.018 414.5 722.637 414.5 689.875 414.5L655.125 414.5C622.362 414.5 605.981 414.5 595.803 424.678 585.625 434.856 585.625 451.238 585.625 484L585.625 588.25" stroke="#1C274C" stroke-width="26.0625" stroke-linecap="butt" stroke-linejoin="miter" stroke-miterlimit="4" stroke-opacity="1" fill="none" fill-rule="nonzero"/><path d="M828.875 588.248 828.875 341.038C828.875 317.74 828.875 306.092 822.688 297.162 816.499 288.233 805.593 284.143 783.778 275.963 741.117 259.965 719.788 251.966 704.831 262.331 689.875 272.696 689.875 295.477 689.875 341.038L689.875 414.498" stroke="#1C274C" stroke-width="26.0625" stroke-linecap="butt" stroke-linejoin="miter" stroke-miterlimit="4" stroke-opacity="0.5" fill="none" fill-rule="nonzero"/><path d="M520.469 345C520.469 352.197 526.303 358.031 533.5 358.031 540.697 358.031 546.531 352.197 546.531 345L520.469 345ZM624.719 345C624.719 352.197 630.553 358.031 637.75 358.031 644.947 358.031 650.781 352.197 650.781 345L624.719 345ZM632.661 289.276 623.447 298.491 632.661 289.276ZM572.594 275.5C572.594 282.697 578.428 288.531 585.625 288.531 592.822 288.531 598.656 282.697 598.656 275.5L572.594 275.5ZM598.656 240.75C598.656 233.553 592.822 227.719 585.625 227.719 578.428 227.719 572.594 233.553 572.594 240.75L598.656 240.75ZM529.156 588.25 529.156 414.5 503.094 414.5 503.094 588.25 529.156 588.25ZM585.625 358.031C602.375 358.031 613.626 358.059 622.019 359.187 630.037 360.265 633.468 362.128 635.732 364.392L654.161 345.964C646.248 338.05 636.399 334.824 625.492 333.357 614.959 331.941 601.638 331.969 585.625 331.969L585.625 358.031ZM668.156 414.5C668.156 398.487 668.184 385.166 666.768 374.633 665.302 363.725 662.075 353.877 654.161 345.964L635.732 364.392C637.997 366.657 639.859 370.088 640.938 378.106 642.066 386.498 642.094 397.75 642.094 414.5L668.156 414.5ZM585.625 331.969C569.612 331.969 556.292 331.941 545.758 333.357 534.851 334.824 525.002 338.05 517.089 345.964L535.518 364.392C537.782 362.128 541.213 360.265 549.231 359.187 557.624 358.059 568.875 358.031 585.625 358.031L585.625 331.969ZM529.156 414.5C529.156 397.75 529.184 386.498 530.312 378.106 531.39 370.088 533.253 366.657 535.518 364.392L517.089 345.964C509.175 353.877 505.949 363.725 504.482 374.633 503.066 385.166 503.094 398.487 503.094 414.5L529.156 414.5ZM546.531 345 546.531 318.937 520.469 318.937 520.469 345 546.531 345ZM568.25 297.219 603 297.219 603 271.156 568.25 271.156 568.25 297.219ZM624.719 318.937 624.719 345 650.781 345 650.781 318.937 624.719 318.937ZM603 297.219C611.559 297.219 616.667 297.246 620.329 297.739 622.006 297.964 622.847 298.23 623.225 298.386 623.313 298.422 623.37 298.45 623.404 298.467 623.437 298.485 623.452 298.494 623.453 298.495 623.454 298.496 623.45 298.493 623.444 298.488 623.438 298.483 623.439 298.483 623.447 298.491L641.875 280.062C636.506 274.693 629.978 272.739 623.802 271.908 618 271.129 610.822 271.156 603 271.156L603 297.219ZM650.781 318.937C650.781 311.115 650.809 303.938 650.029 298.136 649.198 291.959 647.245 285.431 641.875 280.062L623.447 298.491C623.454 298.499 623.454 298.499 623.449 298.493 623.444 298.487 623.442 298.483 623.442 298.484 623.443 298.486 623.453 298.5 623.47 298.533 623.488 298.567 623.516 298.625 623.552 298.712 623.708 299.091 623.973 299.931 624.199 301.609 624.691 305.27 624.719 310.378 624.719 318.937L650.781 318.937ZM546.531 318.937C546.531 310.378 546.559 305.27 547.051 301.609 547.277 299.931 547.543 299.091 547.698 298.712 547.734 298.625 547.762 298.567 547.78 298.533 547.797 298.5 547.807 298.486 547.808 298.484 547.809 298.483 547.806 298.487 547.801 298.493 547.796 298.499 547.796 298.499 547.803 298.491L529.375 280.062C524.005 285.431 522.052 291.959 521.221 298.136 520.441 303.938 520.469 311.115 520.469 318.937L546.531 318.937ZM568.25 271.156C560.428 271.156 553.25 271.129 547.449 271.908 541.272 272.739 534.744 274.693 529.375 280.062L547.803 298.491C547.811 298.483 547.812 298.483 547.806 298.488 547.8 298.493 547.796 298.496 547.797 298.495 547.798 298.494 547.813 298.485 547.846 298.467 547.88 298.45 547.937 298.422 548.025 298.386 548.403 298.23 549.244 297.964 550.921 297.739 554.583 297.246 559.691 297.219 568.25 297.219L568.25 271.156ZM598.656 275.5 598.656 240.75 572.594 240.75 572.594 275.5 598.656 275.5Z" fill="#1C274C" fill-rule="nonzero" fill-opacity="0.5"/><path d="M846.25 588.25 498.75 588.25" stroke="#1C274C" stroke-width="26.0625" stroke-linecap="round" stroke-linejoin="miter" stroke-miterlimit="4" stroke-opacity="1" fill="none" fill-rule="nonzero"/><path d="M637.75 466.625 707.25 466.625" stroke="#1C274C" stroke-width="26.0625" stroke-linecap="round" stroke-linejoin="miter" stroke-miterlimit="4" stroke-opacity="0.5" fill="none" fill-rule="nonzero"/><path d="M637.75 518.75 707.25 518.75" stroke="#1C274C" stroke-width="26.0625" stroke-linecap="round" stroke-linejoin="miter" stroke-miterlimit="4" stroke-opacity="0.5" fill="none" fill-rule="nonzero"/></g></g></g><path d="M1957.5 415C1957.5 266.159 2078.83 145.5 2228.5 145.5 2378.17 145.5 2499.5 266.159 2499.5 415 2499.5 563.841 2378.17 684.5 2228.5 684.5 2078.83 684.5 1957.5 563.841 1957.5 415Z" stroke="#042433" stroke-width="6.875" stroke-linecap="butt" stroke-linejoin="miter" stroke-miterlimit="8" stroke-opacity="1" fill="#156082" fill-rule="evenodd" fill-opacity="1"/><text fill="#FFFFFF" fill-opacity="1" font-family="Aptos,Aptos_MSFontService,sans-serif" font-style="normal" font-variant="normal" font-weight="400" font-stretch="normal" font-size="83" text-anchor="start" direction="ltr" writing-mode="lr-tb" unicode-bidi="normal" text-decoration="none" transform="matrix(1 0 0 1 2130.83 392)">Node</text><text fill="#FFFFFF" fill-opacity="1" font-family="Aptos,Aptos_MSFontService,sans-serif" font-style="normal" font-variant="normal" font-weight="400" font-stretch="normal" font-size="83" text-anchor="start" direction="ltr" writing-mode="lr-tb" unicode-bidi="normal" text-decoration="none" transform="matrix(1 0 0 1 2115.66 491)">Matc</text><text fill="#FFFFFF" fill-opacity="1" font-family="Aptos,Aptos_MSFontService,sans-serif" font-style="normal" font-variant="normal" font-weight="400" font-stretch="normal" font-size="83" text-anchor="start" direction="ltr" writing-mode="lr-tb" unicode-bidi="normal" text-decoration="none" transform="matrix(1 0 0 1 2294.41 491)">h</text><path d="M0 291.501 44.7501 291.501 44.7501 0 134.25 0 134.25 291.501 179 291.501 89.5003 381Z" stroke="#042433" stroke-width="6.875" stroke-linecap="butt" stroke-linejoin="miter" stroke-miterlimit="8" stroke-opacity="1" fill="#156082" fill-rule="evenodd" fill-opacity="1" transform="matrix(1 0 0 -1 2126.5 1076.5)"/><path d="M2515.5 160.836C2515.5 87.749 2574.75 28.5 2647.84 28.5L3962.16 28.5C4035.25 28.5 4094.5 87.749 4094.5 160.836L4094.5 690.164C4094.5 763.251 4035.25 822.5 3962.16 822.5L2647.84 822.5C2574.75 822.5 2515.5 763.251 2515.5 690.164Z" stroke="#4E95D9" stroke-width="22.9167" stroke-linecap="butt" stroke-linejoin="round" stroke-miterlimit="10" stroke-opacity="1" fill="none" fill-rule="evenodd"/><path d="M3107.07 430.679 2522.35 419.38 2522.48 412.506 3107.2 423.806ZM2526.73 429.779 2499.5 415.5 2527.26 402.284Z" fill="#156082" fill-rule="nonzero" fill-opacity="1"/><path d="M0 191 45 191 45 0 135 0 135 191 180 191 90.0001 281Z" stroke="#042433" stroke-width="6.875" stroke-linecap="butt" stroke-linejoin="miter" stroke-miterlimit="8" stroke-opacity="1" fill="#156082" fill-rule="evenodd" fill-opacity="1" transform="matrix(1 0 0 -1 3304.5 1008.5)"/><g><g><g><path d="M1653.06 406.5C1692.64 406.694 1724.89 374.76 1725.09 335.172 1725.28 295.585 1693.35 263.336 1653.76 263.142 1614.17 262.948 1581.92 294.882 1581.73 334.469 1581.7 340.655 1582.47 346.818 1584.02 352.804L1458.02 403.21C1443.64 373.463 1414.88 353.295 1382.01 349.923L1382.01 215.579C1421.05 210.326 1448.44 174.418 1443.19 135.377 1437.94 96.335 1402.03 68.9431 1362.99 74.1957 1323.95 79.4484 1296.56 115.356 1301.81 154.398 1306.09 186.245 1331.14 211.294 1362.99 215.579L1362.99 349.923C1330.13 353.288 1301.36 373.446 1286.98 403.181L1160.98 352.776C1170.72 314.607 1147.68 275.764 1109.51 266.019 1071.35 256.273 1032.5 279.315 1022.76 317.484 1013.01 355.653 1036.05 394.495 1074.22 404.241 1105.35 412.189 1137.96 398.341 1153.86 370.418L1280.44 421.051C1272.51 451.429 1280.29 483.761 1301.17 507.206L1198.98 609.367C1166.49 586.923 1121.96 595.068 1099.52 627.557 1077.07 660.048 1085.22 704.58 1117.71 727.023 1150.2 749.467 1194.73 741.322 1217.17 708.833 1235.49 682.322 1233.8 646.838 1213.07 622.177L1315.08 520.169C1348.96 546.138 1396.05 546.138 1429.92 520.169L1531.93 622.177C1506.54 652.382 1510.44 697.454 1540.64 722.85 1570.84 748.245 1615.92 744.346 1641.31 714.142 1666.71 683.937 1662.81 638.865 1632.61 613.47 1607.96 592.751 1572.51 591.071 1546.02 609.367L1443.83 507.206C1464.69 483.762 1472.46 451.444 1464.53 421.08L1591.12 370.446C1603.79 392.718 1627.43 406.481 1653.06 406.5ZM1091.94 387.479C1063.05 387.479 1039.64 364.061 1039.64 335.172 1039.64 306.283 1063.05 282.865 1091.94 282.865 1120.83 282.865 1144.25 306.283 1144.25 335.172 1144.22 364.048 1120.82 387.448 1091.94 387.479ZM1320.19 144.964C1320.19 116.075 1343.61 92.6564 1372.5 92.6564 1401.39 92.6564 1424.81 116.075 1424.81 144.964 1424.81 173.853 1401.39 197.271 1372.5 197.271 1343.62 197.24 1320.22 173.839 1320.19 144.964ZM1158.52 720.344C1129.63 720.344 1106.21 696.925 1106.21 668.037 1106.21 639.148 1129.63 615.729 1158.52 615.729 1187.4 615.729 1210.82 639.148 1210.82 668.037 1210.79 696.912 1187.39 720.312 1158.52 720.344ZM1638.79 668.037C1638.79 696.925 1615.37 720.344 1586.48 720.344 1557.6 720.344 1534.18 696.925 1534.18 668.037 1534.18 639.148 1557.6 615.729 1586.48 615.729 1615.36 615.761 1638.76 639.161 1638.79 668.037ZM1372.5 520.625C1330.48 520.625 1296.42 486.562 1296.42 444.542 1296.42 402.522 1330.48 368.458 1372.5 368.458 1414.52 368.458 1448.58 402.522 1448.58 444.542 1448.54 486.542 1414.5 520.578 1372.5 520.625ZM1653.06 282.865C1681.95 282.865 1705.36 306.283 1705.36 335.172 1705.36 364.061 1681.95 387.479 1653.06 387.479 1624.17 387.479 1600.75 364.061 1600.75 335.172 1600.78 306.297 1624.18 282.896 1653.06 282.865Z" fill="#000000" fill-rule="nonzero" fill-opacity="1"/></g></g></g><path d="M1707.5 324.5 1957.29 415.678" stroke="#000000" stroke-width="6.875" stroke-linecap="butt" stroke-linejoin="miter" stroke-miterlimit="8" stroke-opacity="1" fill="none" fill-rule="evenodd"/></g></g></svg>